<svg xmlns="http://www.w3.org/2000/svg" xmlns:xlink="http://www.w3.org/1999/xlink" width="142" height="120" viewBox="0 0 142 120">
  <defs>
    <clipPath id="clip-iPhone_X_XS_11_Pro_1">
      <rect width="142" height="120"/>
    </clipPath>
  </defs>
  <g id="iPhone_X_XS_11_Pro_1" data-name="iPhone X/XS/11 Pro – 1" clip-path="url(#clip-iPhone_X_XS_11_Pro_1)">
    <rect width="142" height="120" fill="rgba(255,255,255,0)"/>
    <g id="Ellipse_1" data-name="Ellipse 1" transform="translate(25 23)" fill="#ffdacb" stroke="#fff" stroke-width="2">
      <circle cx="46" cy="46" r="46" stroke="none"/>
      <circle cx="46" cy="46" r="45" fill="none"/>
    </g>
    <g id="Ellipse_2" data-name="Ellipse 2" transform="translate(46 57)" fill="#fff" stroke="#fff" stroke-width="1">
      <circle cx="3" cy="3" r="3" stroke="none"/>
      <circle cx="3" cy="3" r="2.5" fill="none"/>
    </g>
    <g id="Ellipse_3" data-name="Ellipse 3" transform="translate(90 57)" fill="#fff" stroke="#fff" stroke-width="1">
      <circle cx="3" cy="3" r="3" stroke="none"/>
      <circle cx="3" cy="3" r="2.5" fill="none"/>
    </g>
    <g id="Ellipse_4" data-name="Ellipse 4" transform="translate(47 64)" fill="#ffdacb" stroke="#fff" stroke-width="2">
      <ellipse cx="24" cy="17" rx="24" ry="17" stroke="none"/>
      <ellipse cx="24" cy="17" rx="23" ry="16" fill="none"/>
    </g>
    <g id="Ellipse_5" data-name="Ellipse 5" transform="translate(46 60)" fill="#ffdacb" stroke="#ffdacb" stroke-width="1">
      <ellipse cx="25" cy="16.5" rx="25" ry="16.5" stroke="none"/>
      <ellipse cx="25" cy="16.5" rx="24.5" ry="16" fill="none"/>
    </g>
    <line id="Line_1" data-name="Line 1" x2="7" y2="7" transform="translate(31.5 31.5)" fill="none" stroke="#6c5b7b" stroke-width="2"/>
    <line id="Line_2" data-name="Line 2" x1="7" y2="7" transform="translate(103.5 31.5)" fill="none" stroke="#6c5b7b" stroke-width="2"/>
    <line id="Line_3" data-name="Line 3" x2="7" y2="9" transform="translate(35.5 24.5)" fill="none" stroke="#6c5b7b" stroke-width="2"/>
    <line id="Line_4" data-name="Line 4" x1="8" y2="9" transform="translate(99.5 24.5)" fill="none" stroke="#6c5b7b" stroke-width="2"/>
    <line id="Line_5" data-name="Line 5" x2="7" y2="7" transform="matrix(0.966, 0.259, -0.259, 0.966, 43.687, 22.076)" fill="none" stroke="#6c5b7b" stroke-width="2"/>
    <line id="Line_7" data-name="Line 7" x1="7" y2="7" transform="translate(92.623 23.777) rotate(-11)" fill="none" stroke="#6c5b7b" stroke-width="2"/>
    <line id="Line_11" data-name="Line 11" x1="3.667" y2="7.928" transform="translate(81.833 17.5)" fill="none" stroke="#6c5b7b" stroke-width="2"/>
    <g id="Ellipse_6" data-name="Ellipse 6" transform="matrix(0.966, 0.259, -0.259, 0.966, 67.071, 8.48)" fill="#fff" stroke="#fff" stroke-width="1">
      <ellipse cx="28" cy="16.5" rx="28" ry="16.5" stroke="none"/>
      <ellipse cx="28" cy="16.5" rx="27.5" ry="16" fill="none"/>
    </g>
    <g id="Ellipse_7" data-name="Ellipse 7" transform="matrix(0.966, -0.259, 0.259, 0.966, 21.34, 25.196)" fill="#fff" stroke="#fff" stroke-width="1">
      <ellipse cx="24.5" cy="13.5" rx="24.5" ry="13.5" stroke="none"/>
      <ellipse cx="24.5" cy="13.5" rx="24" ry="13" fill="none"/>
    </g>
    <g id="Ellipse_8" data-name="Ellipse 8" transform="translate(57.489 83.468) rotate(1)" fill="#fff" stroke="#fff" stroke-width="1">
      <ellipse cx="8" cy="3.5" rx="8" ry="3.5" stroke="none"/>
      <ellipse cx="8" cy="3.5" rx="7.5" ry="3" fill="none"/>
    </g>
    <g id="Ellipse_9" data-name="Ellipse 9" transform="translate(69.489 83.468) rotate(1)" fill="#fff" stroke="#fff" stroke-width="1">
      <ellipse cx="8" cy="3.5" rx="8" ry="3.5" stroke="none"/>
      <ellipse cx="8" cy="3.5" rx="7.5" ry="3" fill="none"/>
    </g>
    <g id="Ellipse_10" data-name="Ellipse 10" transform="translate(54.49 80.381) rotate(1)" fill="#ffdacb" stroke="#ffdacb" stroke-width="1">
      <ellipse cx="8.5" cy="3.5" rx="8.5" ry="3.5" stroke="none"/>
      <ellipse cx="8.5" cy="3.5" rx="8" ry="3" fill="none"/>
    </g>
    <g id="Ellipse_11" data-name="Ellipse 11" transform="translate(71.49 80.381) rotate(1)" fill="#ffdacb" stroke="#ffdacb" stroke-width="1">
      <ellipse cx="8.5" cy="3.5" rx="8.5" ry="3.5" stroke="none"/>
      <ellipse cx="8.5" cy="3.5" rx="8" ry="3" fill="none"/>
    </g>
  </g>
</svg>
