<svg xmlns="http://www.w3.org/2000/svg" xmlns:xlink="http://www.w3.org/1999/xlink" width="142" height="120" viewBox="0 0 142 120">
  <defs>
    <clipPath id="clip-iPhone_X_XS_11_Pro_1">
      <rect width="142" height="120"/>
    </clipPath>
  </defs>
  <g id="iPhone_X_XS_11_Pro_1" data-name="iPhone X/XS/11 Pro – 1" clip-path="url(#clip-iPhone_X_XS_11_Pro_1)">
    <rect width="142" height="120" fill="rgba(255,255,255,0)"/>
    <g id="Path_1" data-name="Path 1" transform="translate(25 23)" fill="#ffdacb">
      <path d="M 46 91 C 39.92459869384766 91 34.03146362304688 89.81034851074219 28.48427581787109 87.46408843994141 C 23.12582588195801 85.19764709472656 18.3132381439209 81.95285034179688 14.18019962310791 77.81980133056641 C 10.04714965820313 73.68675994873047 6.802350044250488 68.87417602539063 4.53591251373291 63.51572418212891 C 2.189650058746338 57.96853637695313 1 52.07540130615234 1 46 C 1 39.92459869384766 2.189650058746338 34.03146362304688 4.53591251373291 28.48427581787109 C 6.802350044250488 23.12582588195801 10.04714965820313 18.3132381439209 14.18019962310791 14.18019962310791 C 18.3132381439209 10.04714965820313 23.12582588195801 6.802350044250488 28.48427581787109 4.53591251373291 C 34.03146362304688 2.189650058746338 39.92459869384766 1 46 1 C 52.07540130615234 1 57.96853637695313 2.189650058746338 63.51572418212891 4.53591251373291 C 68.87417602539063 6.802350044250488 73.68675994873047 10.04714965820313 77.81980133056641 14.18019962310791 C 81.95285034179688 18.3132381439209 85.19764709472656 23.12582588195801 87.46408843994141 28.48427581787109 C 89.81034851074219 34.03146362304688 91 39.92459869384766 91 46 C 91 52.07540130615234 89.81034851074219 57.96853637695313 87.46408843994141 63.51572418212891 C 85.19764709472656 68.87417602539063 81.95285034179688 73.68675994873047 77.81980133056641 77.81980133056641 C 73.68675994873047 81.95285034179688 68.87417602539063 85.19764709472656 63.51572418212891 87.46408843994141 C 57.96853637695313 89.81034851074219 52.07540130615234 91 46 91 Z" stroke="none"/>
      <path d="M 46 2 C 40.05915832519531 2 34.29708099365234 3.163078308105469 28.87382507324219 5.456916809082031 C 23.63459014892578 7.672935485839844 18.92882537841797 10.84577178955078 14.88730621337891 14.88730621337891 C 10.84577178955078 18.92882537841797 7.672935485839844 23.63459014892578 5.456916809082031 28.87382507324219 C 3.163078308105469 34.29708099365234 2 40.05915832519531 2 46 C 2 51.94084167480469 3.163078308105469 57.70291900634766 5.456916809082031 63.12617492675781 C 7.672935485839844 68.36541748046875 10.84577178955078 73.07117462158203 14.88730621337891 77.11269378662109 C 18.92882537841797 81.15422821044922 23.63459014892578 84.32706451416016 28.87382507324219 86.54308319091797 C 34.29708099365234 88.83692169189453 40.05915832519531 90 46 90 C 51.94084167480469 90 57.70291900634766 88.83692169189453 63.12617492675781 86.54308319091797 C 68.36541748046875 84.32706451416016 73.07117462158203 81.15422821044922 77.11269378662109 77.11269378662109 C 81.15422821044922 73.07117462158203 84.32706451416016 68.36541748046875 86.54308319091797 63.12617492675781 C 88.83692169189453 57.70291900634766 90 51.94084167480469 90 46 C 90 40.05915832519531 88.83692169189453 34.29708099365234 86.54308319091797 28.87382507324219 C 84.32706451416016 23.63459014892578 81.15422821044922 18.92882537841797 77.11269378662109 14.88730621337891 C 73.07117462158203 10.84577178955078 68.36541748046875 7.672935485839844 63.12617492675781 5.456916809082031 C 57.70291900634766 3.163078308105469 51.94084167480469 2 46 2 M 46 0 C 71.40509033203125 0 92 20.59490966796875 92 46 C 92 71.40509033203125 71.40509033203125 92 46 92 C 20.59490966796875 92 0 71.40509033203125 0 46 C 0 20.59490966796875 20.59490966796875 0 46 0 Z" stroke="none" fill="#fff"/>
    </g>
    <g id="Ellipse_1" data-name="Ellipse 1" transform="translate(46 57)" fill="#fff" stroke="#fff" stroke-width="1">
      <circle cx="3" cy="3" r="3" stroke="none"/>
      <circle cx="3" cy="3" r="2.5" fill="none"/>
    </g>
    <g id="Ellipse_2" data-name="Ellipse 2" transform="translate(90 57)" fill="#fff" stroke="#fff" stroke-width="1">
      <circle cx="3" cy="3" r="3" stroke="none"/>
      <circle cx="3" cy="3" r="2.5" fill="none"/>
    </g>
    <g id="Ellipse_3" data-name="Ellipse 3" transform="translate(47 64)" fill="#ffdacb" stroke="#fff" stroke-width="2">
      <ellipse cx="24" cy="17" rx="24" ry="17" stroke="none"/>
      <ellipse cx="24" cy="17" rx="23" ry="16" fill="none"/>
    </g>
    <g id="Ellipse_4" data-name="Ellipse 4" transform="translate(46 60)" fill="#ffdacb" stroke="#ffdacb" stroke-width="1">
      <ellipse cx="25" cy="16.5" rx="25" ry="16.5" stroke="none"/>
      <ellipse cx="25" cy="16.5" rx="24.5" ry="16" fill="none"/>
    </g>
    <g id="Ellipse_5" data-name="Ellipse 5" transform="matrix(0.966, 0.259, -0.259, 0.966, 67.071, 12.48)" fill="#fff" stroke="#fff" stroke-width="1">
      <ellipse cx="28" cy="16.5" rx="28" ry="16.5" stroke="none"/>
      <ellipse cx="28" cy="16.5" rx="27.5" ry="16" fill="none"/>
    </g>
    <g id="Ellipse_6" data-name="Ellipse 6" transform="matrix(0.966, -0.259, 0.259, 0.966, 21.34, 29.196)" fill="#fff" stroke="#fff" stroke-width="1">
      <ellipse cx="24.5" cy="13.5" rx="24.5" ry="13.5" stroke="none"/>
      <ellipse cx="24.5" cy="13.5" rx="24" ry="13" fill="none"/>
    </g>
    <g id="Ellipse_7" data-name="Ellipse 7" transform="translate(18 43)" fill="#fff" stroke="#fff" stroke-width="1">
      <ellipse cx="9" cy="10.5" rx="9" ry="10.5" stroke="none"/>
      <ellipse cx="9" cy="10.5" rx="8.5" ry="10" fill="none"/>
    </g>
    <g id="Ellipse_8" data-name="Ellipse 8" transform="translate(9 57)" fill="#fff" stroke="#fff" stroke-width="1">
      <ellipse cx="9" cy="10.5" rx="9" ry="10.5" stroke="none"/>
      <ellipse cx="9" cy="10.5" rx="8.5" ry="10" fill="none"/>
    </g>
    <g id="Ellipse_9" data-name="Ellipse 9" transform="translate(20 60)" fill="#fff" stroke="#fff" stroke-width="1">
      <ellipse cx="9" cy="10.5" rx="9" ry="10.5" stroke="none"/>
      <ellipse cx="9" cy="10.5" rx="8.5" ry="10" fill="none"/>
    </g>
    <g id="Ellipse_10" data-name="Ellipse 10" transform="translate(12 72)" fill="#fff" stroke="#fff" stroke-width="1">
      <ellipse cx="9" cy="10.5" rx="9" ry="10.5" stroke="none"/>
      <ellipse cx="9" cy="10.5" rx="8.5" ry="10" fill="none"/>
    </g>
    <g id="Ellipse_11" data-name="Ellipse 11" transform="translate(21 78)" fill="#fff" stroke="#fff" stroke-width="1">
      <ellipse cx="9" cy="10.5" rx="9" ry="10.5" stroke="none"/>
      <ellipse cx="9" cy="10.5" rx="8.5" ry="10" fill="none"/>
    </g>
    <g id="Ellipse_12" data-name="Ellipse 12" transform="translate(9 88)" fill="#fff" stroke="#fff" stroke-width="1">
      <ellipse cx="9" cy="10.5" rx="9" ry="10.5" stroke="none"/>
      <ellipse cx="9" cy="10.5" rx="8.5" ry="10" fill="none"/>
    </g>
    <g id="Ellipse_13" data-name="Ellipse 13" transform="translate(21 94)" fill="#fff" stroke="#fff" stroke-width="1">
      <ellipse cx="9" cy="10.5" rx="9" ry="10.5" stroke="none"/>
      <ellipse cx="9" cy="10.5" rx="8.5" ry="10" fill="none"/>
    </g>
    <g id="Ellipse_14" data-name="Ellipse 14" transform="translate(105 43)" fill="#fff" stroke="#fff" stroke-width="1">
      <ellipse cx="9" cy="10.5" rx="9" ry="10.5" stroke="none"/>
      <ellipse cx="9" cy="10.5" rx="8.5" ry="10" fill="none"/>
    </g>
    <g id="Ellipse_15" data-name="Ellipse 15" transform="translate(114 57)" fill="#fff" stroke="#fff" stroke-width="1">
      <ellipse cx="9" cy="10.5" rx="9" ry="10.5" stroke="none"/>
      <ellipse cx="9" cy="10.5" rx="8.5" ry="10" fill="none"/>
    </g>
    <g id="Ellipse_16" data-name="Ellipse 16" transform="translate(103 60)" fill="#fff" stroke="#fff" stroke-width="1">
      <ellipse cx="9" cy="10.5" rx="9" ry="10.5" stroke="none"/>
      <ellipse cx="9" cy="10.5" rx="8.5" ry="10" fill="none"/>
    </g>
    <g id="Ellipse_17" data-name="Ellipse 17" transform="translate(111 72)" fill="#fff" stroke="#fff" stroke-width="1">
      <ellipse cx="9" cy="10.5" rx="9" ry="10.5" stroke="none"/>
      <ellipse cx="9" cy="10.5" rx="8.5" ry="10" fill="none"/>
    </g>
    <g id="Ellipse_18" data-name="Ellipse 18" transform="translate(102 78)" fill="#fff" stroke="#fff" stroke-width="1">
      <ellipse cx="9" cy="10.5" rx="9" ry="10.5" stroke="none"/>
      <ellipse cx="9" cy="10.5" rx="8.5" ry="10" fill="none"/>
    </g>
    <g id="Ellipse_19" data-name="Ellipse 19" transform="translate(114 88)" fill="#fff" stroke="#fff" stroke-width="1">
      <ellipse cx="9" cy="10.5" rx="9" ry="10.5" stroke="none"/>
      <ellipse cx="9" cy="10.5" rx="8.5" ry="10" fill="none"/>
    </g>
    <g id="Ellipse_20" data-name="Ellipse 20" transform="translate(102 94)" fill="#fff" stroke="#fff" stroke-width="1">
      <ellipse cx="9" cy="10.5" rx="9" ry="10.5" stroke="none"/>
      <ellipse cx="9" cy="10.5" rx="8.5" ry="10" fill="none"/>
    </g>
    <g id="Ellipse_21" data-name="Ellipse 21" transform="translate(67 94)" fill="#fff" stroke="#fff" stroke-width="1">
      <ellipse cx="2.5" cy="2" rx="2.5" ry="2" stroke="none"/>
      <ellipse cx="2.5" cy="2" rx="2" ry="1.5" fill="none"/>
    </g>
    <g id="Ellipse_22" data-name="Ellipse 22" transform="translate(71 94)" fill="#fff" stroke="#fff" stroke-width="1">
      <ellipse cx="2.5" cy="2" rx="2.5" ry="2" stroke="none"/>
      <ellipse cx="2.5" cy="2" rx="2" ry="1.5" fill="none"/>
    </g>
    <g id="Ellipse_23" data-name="Ellipse 23" transform="translate(67 95)" fill="#fff" stroke="#fff" stroke-width="1">
      <ellipse cx="4.5" cy="2.5" rx="4.5" ry="2.5" stroke="none"/>
      <ellipse cx="4.5" cy="2.5" rx="4" ry="2" fill="none"/>
    </g>
  </g>
</svg>
