<svg xmlns="http://www.w3.org/2000/svg" xmlns:xlink="http://www.w3.org/1999/xlink" width="142" height="120" viewBox="0 0 142 120">
  <defs>
    <clipPath id="clip-iPhone_X_XS_11_Pro_1">
      <rect width="142" height="120"/>
    </clipPath>
  </defs>
  <g id="iPhone_X_XS_11_Pro_1" data-name="iPhone X/XS/11 Pro – 1" clip-path="url(#clip-iPhone_X_XS_11_Pro_1)">
    <rect width="142" height="120" fill="rgba(255,255,255,0)"/>
    <g id="Polygon_2" data-name="Polygon 2" transform="translate(39 17)" fill="#fff">
      <path d="M 90.93553924560547 86.5 L 18.06446266174316 86.5 C 14.55821228027344 86.5 11.4511251449585 84.66860198974609 9.752987861633301 81.60101318359375 C 8.054849624633789 78.53342437744141 8.152312278747559 74.92806243896484 10.01368713378906 71.95668792724609 L 46.44921112060547 13.79355049133301 C 48.1973762512207 11.00291347503662 51.20701217651367 9.336851119995117 54.5 9.336851119995117 C 57.79298782348633 9.336851119995117 60.8026123046875 11.00291347503662 62.55077362060547 13.79355049133301 L 98.98631286621094 71.95668792724609 C 100.8476867675781 74.92806243896484 100.9451522827148 78.53342437744141 99.24700927734375 81.60101318359375 C 97.54887390136719 84.66860198974609 94.44178771972656 86.5 90.93553924560547 86.5 Z" stroke="none"/>
      <path d="M 54.5 9.836845397949219 C 51.38032150268555 9.836845397949219 48.52909469604492 11.41521453857422 46.87294769287109 14.05899047851563 L 10.43741607666016 72.22213745117188 C 8.674003601074219 75.03712463378906 8.5816650390625 78.45272827148438 10.19043731689453 81.35885620117188 C 11.79920196533203 84.26499176025391 14.74275970458984 86 18.06446838378906 86 L 90.93553161621094 86 C 94.25724029541016 86 97.20079803466797 84.26499176025391 98.80956268310547 81.35885620117188 C 100.4183349609375 78.45272827148438 100.3260040283203 75.03712463378906 98.56258392333984 72.22213745117188 L 62.12705230712891 14.05899047851563 C 60.47089385986328 11.41521453857422 57.61966705322266 9.836845397949219 54.5 9.836845397949219 M 54.49999618530273 8.83685302734375 C 57.75765609741211 8.83685302734375 61.01531982421875 10.40060424804688 62.97450637817383 13.52811431884766 L 99.41004180908203 71.69125366210938 C 103.5821762084961 78.35136413574219 98.79453277587891 87.00000762939453 90.93553161621094 87.00000762939453 L 18.06446838378906 87.00000762939453 C 10.20546722412109 87.00000762939453 5.417823791503906 78.35136413574219 9.589958190917969 71.69125366210938 L 46.02549362182617 13.52811431884766 C 47.98467254638672 10.40060424804688 51.24233245849609 8.83685302734375 54.49999618530273 8.83685302734375 Z" stroke="none" fill="#fff"/>
    </g>
    <g id="Polygon_1" data-name="Polygon 1" transform="translate(-7 17)" fill="#fff">
      <path d="M 90.93553924560547 86.5 L 18.06446266174316 86.5 C 14.55821228027344 86.5 11.4511251449585 84.66860198974609 9.752987861633301 81.60101318359375 C 8.054849624633789 78.53342437744141 8.152312278747559 74.92806243896484 10.01368713378906 71.95668792724609 L 46.44922637939453 13.79355049133301 C 48.1973876953125 11.00291347503662 51.20701217651367 9.336851119995117 54.5 9.336851119995117 C 57.79298782348633 9.336851119995117 60.8026123046875 11.00291347503662 62.55077362060547 13.79355049133301 L 98.98631286621094 71.95668792724609 C 100.8476867675781 74.92806243896484 100.9451522827148 78.53342437744141 99.24700927734375 81.60101318359375 C 97.54887390136719 84.66860198974609 94.44178771972656 86.5 90.93553924560547 86.5 Z" stroke="none"/>
      <path d="M 54.5 9.836845397949219 C 51.38033294677734 9.836845397949219 48.52910614013672 11.41521453857422 46.87294769287109 14.05899047851563 L 10.43741607666016 72.22213745117188 C 8.674003601074219 75.03712463378906 8.5816650390625 78.45272827148438 10.19043731689453 81.35885620117188 C 11.79920196533203 84.26499176025391 14.74275970458984 86 18.06446838378906 86 L 90.93553161621094 86 C 94.25724029541016 86 97.20079803466797 84.26499176025391 98.80956268310547 81.35885620117188 C 100.4183349609375 78.45272827148438 100.3260040283203 75.03712463378906 98.56258392333984 72.22213745117188 L 62.12705230712891 14.05899047851563 C 60.47089385986328 11.41521453857422 57.61966705322266 9.836845397949219 54.5 9.836845397949219 M 54.5 8.83685302734375 C 57.75765991210938 8.83685302734375 61.01531982421875 10.40060424804688 62.97450637817383 13.52811431884766 L 99.41004180908203 71.69125366210938 C 103.5821762084961 78.35136413574219 98.79453277587891 87.00000762939453 90.93553161621094 87.00000762939453 L 18.06446838378906 87.00000762939453 C 10.20546722412109 87.00000762939453 5.417823791503906 78.35136413574219 9.589958190917969 71.69125366210938 L 46.02549362182617 13.52811431884766 C 47.98468017578125 10.40060424804688 51.24234008789063 8.83685302734375 54.5 8.83685302734375 Z" stroke="none" fill="#fff"/>
    </g>
    <g id="Path_1" data-name="Path 1" transform="translate(25 23)" fill="#ffdacb">
      <path d="M 46 91 C 39.92459869384766 91 34.03146362304688 89.81034851074219 28.48427581787109 87.46408843994141 C 23.12582588195801 85.19764709472656 18.3132381439209 81.95285034179688 14.18019962310791 77.81980133056641 C 10.04714965820313 73.68675994873047 6.802350044250488 68.87417602539063 4.53591251373291 63.51572418212891 C 2.189650058746338 57.96853637695313 1 52.07540130615234 1 46 C 1 39.92459869384766 2.189650058746338 34.03146362304688 4.53591251373291 28.48427581787109 C 6.802350044250488 23.12582588195801 10.04714965820313 18.3132381439209 14.18019962310791 14.18019962310791 C 18.3132381439209 10.04714965820313 23.12582588195801 6.802350044250488 28.48427581787109 4.53591251373291 C 34.03146362304688 2.189650058746338 39.92459869384766 1 46 1 C 52.07540130615234 1 57.96853637695313 2.189650058746338 63.51572418212891 4.53591251373291 C 68.87417602539063 6.802350044250488 73.68675994873047 10.04714965820313 77.81980133056641 14.18019962310791 C 81.95285034179688 18.3132381439209 85.19764709472656 23.12582588195801 87.46408843994141 28.48427581787109 C 89.81034851074219 34.03146362304688 91 39.92459869384766 91 46 C 91 52.07540130615234 89.81034851074219 57.96853637695313 87.46408843994141 63.51572418212891 C 85.19764709472656 68.87417602539063 81.95285034179688 73.68675994873047 77.81980133056641 77.81980133056641 C 73.68675994873047 81.95285034179688 68.87417602539063 85.19764709472656 63.51572418212891 87.46408843994141 C 57.96853637695313 89.81034851074219 52.07540130615234 91 46 91 Z" stroke="none"/>
      <path d="M 46 2 C 40.05915832519531 2 34.29708099365234 3.163078308105469 28.87382507324219 5.456916809082031 C 23.63459014892578 7.672935485839844 18.92882537841797 10.84577178955078 14.88730621337891 14.88730621337891 C 10.84577178955078 18.92882537841797 7.672935485839844 23.63459014892578 5.456916809082031 28.87382507324219 C 3.163078308105469 34.29708099365234 2 40.05915832519531 2 46 C 2 51.94084167480469 3.163078308105469 57.70291900634766 5.456916809082031 63.12617492675781 C 7.672935485839844 68.36541748046875 10.84577178955078 73.07117462158203 14.88730621337891 77.11269378662109 C 18.92882537841797 81.15422821044922 23.63459014892578 84.32706451416016 28.87382507324219 86.54308319091797 C 34.29708099365234 88.83692169189453 40.05915832519531 90 46 90 C 51.94084167480469 90 57.70291900634766 88.83692169189453 63.12617492675781 86.54308319091797 C 68.36541748046875 84.32706451416016 73.07117462158203 81.15422821044922 77.11269378662109 77.11269378662109 C 81.15422821044922 73.07117462158203 84.32706451416016 68.36541748046875 86.54308319091797 63.12617492675781 C 88.83692169189453 57.70291900634766 90 51.94084167480469 90 46 C 90 40.05915832519531 88.83692169189453 34.29708099365234 86.54308319091797 28.87382507324219 C 84.32706451416016 23.63459014892578 81.15422821044922 18.92882537841797 77.11269378662109 14.88730621337891 C 73.07117462158203 10.84577178955078 68.36541748046875 7.672935485839844 63.12617492675781 5.456916809082031 C 57.70291900634766 3.163078308105469 51.94084167480469 2 46 2 M 46 0 C 71.40509033203125 0 92 20.59490966796875 92 46 C 92 71.40509033203125 71.40509033203125 92 46 92 C 20.59490966796875 92 0 71.40509033203125 0 46 C 0 20.59490966796875 20.59490966796875 0 46 0 Z" stroke="none" fill="#fff"/>
    </g>
    <g id="Ellipse_1" data-name="Ellipse 1" transform="translate(46 57)" fill="#fff" stroke="#fff" stroke-width="1">
      <circle cx="3" cy="3" r="3" stroke="none"/>
      <circle cx="3" cy="3" r="2.5" fill="none"/>
    </g>
    <g id="Ellipse_2" data-name="Ellipse 2" transform="translate(90 57)" fill="#fff" stroke="#fff" stroke-width="1">
      <circle cx="3" cy="3" r="3" stroke="none"/>
      <circle cx="3" cy="3" r="2.5" fill="none"/>
    </g>
    <g id="Ellipse_3" data-name="Ellipse 3" transform="translate(47 64)" fill="#ffdacb" stroke="#fff" stroke-width="2">
      <ellipse cx="24" cy="17" rx="24" ry="17" stroke="none"/>
      <ellipse cx="24" cy="17" rx="23" ry="16" fill="none"/>
    </g>
    <g id="Ellipse_4" data-name="Ellipse 4" transform="translate(46 60)" fill="#ffdacb" stroke="#ffdacb" stroke-width="1">
      <ellipse cx="25" cy="16.5" rx="25" ry="16.5" stroke="none"/>
      <ellipse cx="25" cy="16.5" rx="24.5" ry="16" fill="none"/>
    </g>
    <g id="Ellipse_5" data-name="Ellipse 5" transform="matrix(0.966, 0.259, -0.259, 0.966, 67.071, 12.48)" fill="#fff" stroke="#fff" stroke-width="1">
      <ellipse cx="28" cy="16.5" rx="28" ry="16.5" stroke="none"/>
      <ellipse cx="28" cy="16.5" rx="27.5" ry="16" fill="none"/>
    </g>
    <g id="Ellipse_6" data-name="Ellipse 6" transform="matrix(0.966, -0.259, 0.259, 0.966, 21.34, 29.196)" fill="#fff" stroke="#fff" stroke-width="1">
      <ellipse cx="24.5" cy="13.5" rx="24.5" ry="13.5" stroke="none"/>
      <ellipse cx="24.5" cy="13.5" rx="24" ry="13" fill="none"/>
    </g>
  </g>
</svg>
